# xmcd
#
# Track frame offsets:
#	150
#	19517
#	40420
#	65180
#	85183
#	105769
#	128174
#	152647
#	170799
#	186604
#	205310
#	222510
#	238959
#
# Disc length: 3499 seconds
#
# Revision: 0
# Processed by: cddbd v1.5.2PL0 Copyright (c) Steve Scherf et al.
# Submitted via: dBpowerAMP V4.0
#
DISCID=bf0da90d
DTITLE=경배와 찬양 - 새노래 컬렉션 1
DYEAR=2006
DGENRE=Blues
TTITLE0=거룩하신 전능의 왕 앞에
TTITLE1=거룩한 이름
TTITLE2=거리마다 기쁨으로
TTITLE3=거친 바다 위를 가는
TTITLE4=고치소서
TTITLE5=구원의 주 날 건지사
TTITLE6=그날에 이르러
TTITLE7=기쁘게 손뼉치면서
TTITLE8=기쁨의 노래를 부르며
TTITLE9=나의 평생에
TTITLE10=나팔소리 울려라
TTITLE11=내 구주 내 생명
TTITLE12=내눈으로 주 얼굴 볼 수 없고
EXTD=경배와 찬양
EXTT0=
EXTT1=
EXTT2=
EXTT3=
EXTT4=
EXTT5=
EXTT6=
EXTT7=
EXTT8=
EXTT9=
EXTT10=
EXTT11=
EXTT12=
PLAYORDER=
